<?xml version="1.0" encoding="UTF-8" standalone="no"?>
<!-- Created with Inkscape (http://www.inkscape.org/) -->

<svg
   xmlns:dc="http://purl.org/dc/elements/1.1/"
   xmlns:cc="http://creativecommons.org/ns#"
   xmlns:rdf="http://www.w3.org/1999/02/22-rdf-syntax-ns#"
   xmlns:svg="http://www.w3.org/2000/svg"
   xmlns="http://www.w3.org/2000/svg"
   xmlns:sodipodi="http://sodipodi.sourceforge.net/DTD/sodipodi-0.dtd"
   xmlns:inkscape="http://www.inkscape.org/namespaces/inkscape"
   width="100"
   height="100"
   id="svg2"
   version="1.1"
   inkscape:version="0.48.4 r9939"
   sodipodi:docname="spades.svg"
   inkscape:export-filename="C:\Dropbox\NETBEANS_WS\1000\img\spades.png"
   inkscape:export-xdpi="90"
   inkscape:export-ydpi="90">
  <defs
     id="defs4" />
  <sodipodi:namedview
     id="base"
     pagecolor="#ffffff"
     bordercolor="#666666"
     borderopacity="1.0"
     inkscape:pageopacity="0.0"
     inkscape:pageshadow="2"
     inkscape:zoom="5.6"
     inkscape:cx="27.687991"
     inkscape:cy="50.717584"
     inkscape:document-units="px"
     inkscape:current-layer="layer1"
     showgrid="false"
     showguides="true"
     inkscape:guide-bbox="true"
     inkscape:window-width="1280"
     inkscape:window-height="962"
     inkscape:window-x="-8"
     inkscape:window-y="-8"
     inkscape:window-maximized="1"
     inkscape:snap-global="true" />
  <metadata
     id="metadata7">
    <rdf:RDF>
      <cc:Work
         rdf:about="">
        <dc:format>image/svg+xml</dc:format>
        <dc:type
           rdf:resource="http://purl.org/dc/dcmitype/StillImage" />
        <dc:title></dc:title>
      </cc:Work>
    </rdf:RDF>
  </metadata>
  <g
     inkscape:label="Layer 1"
     inkscape:groupmode="layer"
     id="layer1"
     transform="translate(0,-952.36218)">
    <g
       id="layer1-9"
       inkscape:label="Layer 1"
       transform="matrix(-0.95042307,0,0,-0.95042307,97.521153,1947.464)"
       style="fill:#000000" />
    <path
       id="path3007"
       style="fill:#000000;stroke:#000000;stroke-width:0.94050366px;stroke-linecap:butt;stroke-linejoin:miter;stroke-opacity:1"
       d="m 49.926522,1012.6404 c -2.025273,16.9018 -9.416185,29.1481 -24.864565,34.4165 l 24.864565,0 0,-34.4165 z m 0.176345,0 0,34.4165 24.835175,0 c -15.44838,-5.2685 -22.809901,-17.5146 -24.835175,-34.4165 z m 18.459033,22.2914 c 5.896796,-0.2278 11.493643,-5.8642 16.843983,-16.2015 C 95.940431,994.22832 64.539805,977.58774 50.0419,957.77917 l 0,-0.11173 c -0.01199,0.0161 -0.01591,0.0393 -0.02793,0.0554 -0.01533,-0.0214 -0.04057,-0.0349 -0.05587,-0.0554 l 0,0.11173 c -14.497905,19.80857 -45.8985273,36.44915 -35.363984,60.95113 10.688472,20.651 22.403433,22.4998 35.419852,0.084 6.498092,11.1865 12.666798,16.3449 18.547934,16.1177 z"
       inkscape:connector-curvature="0" />
  </g>
</svg>
